<svg width="5" height="9" viewBox="0 0 5 9" fill="none" xmlns="http://www.w3.org/2000/svg">
<rect width="5" height="9" fill="#626262"/>
<g id="Home menu">
<rect x="-342.5" y="-143.5" width="1554" height="963" rx="4.5" fill="white"/>
<rect x="-342.5" y="-143.5" width="1554" height="963" rx="4.5" stroke="#9747FF" stroke-dasharray="10 5"/>
<g id="Property 1=Variant2">
<g id="Group 23795">
<g id="Ret&#195;&#162;ngulo 451" filter="url(#filter0_d_13_673)">
<rect x="-202" y="-25" width="1261" height="329" fill="white"/>
</g>
<rect id="Ret&#195;&#162;ngulo 452" opacity="0.57" x="-202" y="-25" width="234" height="329" fill="#F5F5F5"/>
<g id="Frame 23831">
<g id="Frame 23832">
<path id="arrow" d="M4.45948 5.03932L1.27979 8.27623C0.987123 8.57459 0.512778 8.57459 0.219501 8.27623C-0.0731669 7.97892 -0.0731669 7.49559 0.219501 7.1978L2.86978 4.49986L0.219501 1.80232C-0.0731669 1.50453 -0.0731669 1.02185 0.219501 0.723405C0.512778 0.425531 0.987123 0.425531 1.27979 0.723405L4.45948 3.96032C4.60614 4.10958 4.67943 4.3048 4.67943 4.50002C4.67943 4.69524 4.60614 4.89038 4.45948 5.03932Z" fill="#005CFF"/>
</g>
</g>
</g>
</g>
</g>
<defs>
<filter id="filter0_d_13_673" x="-209" y="-28" width="1275" height="343" filterUnits="userSpaceOnUse" color-interpolation-filters="sRGB">
<feFlood flood-opacity="0" result="BackgroundImageFix"/>
<feColorMatrix in="SourceAlpha" type="matrix" values="0 0 0 0 0 0 0 0 0 0 0 0 0 0 0 0 0 0 127 0" result="hardAlpha"/>
<feMorphology radius="1" operator="erode" in="SourceAlpha" result="effect1_dropShadow_13_673"/>
<feOffset dy="4"/>
<feGaussianBlur stdDeviation="4"/>
<feComposite in2="hardAlpha" operator="out"/>
<feColorMatrix type="matrix" values="0 0 0 0 0 0 0 0 0 0 0 0 0 0 0 0 0 0 0.1 0"/>
<feBlend mode="normal" in2="BackgroundImageFix" result="effect1_dropShadow_13_673"/>
<feBlend mode="normal" in="SourceGraphic" in2="effect1_dropShadow_13_673" result="shape"/>
</filter>
</defs>
</svg>
