<svg width="121" height="48" viewBox="0 0 121 48" fill="none" xmlns="http://www.w3.org/2000/svg">
<rect width="121" height="48" rx="8" fill="#005CFF"/>
<path d="M30.8204 29.144C29.711 29.144 28.7404 28.9093 27.9084 28.44C27.087 27.96 26.4524 27.2827 26.0044 26.408C25.567 25.5333 25.3484 24.5147 25.3484 23.352C25.3484 22.1893 25.567 21.176 26.0044 20.312C26.4524 19.4373 27.087 18.7653 27.9084 18.296C28.7404 17.816 29.711 17.576 30.8204 17.576C31.5777 17.576 32.2924 17.6933 32.9644 17.928C33.6364 18.1627 34.2017 18.4933 34.6604 18.92L33.9724 20.424C33.4604 20.0187 32.9537 19.7253 32.4524 19.544C31.951 19.352 31.4177 19.256 30.8524 19.256C29.7644 19.256 28.9217 19.608 28.3244 20.312C27.7377 21.016 27.4444 22.0293 27.4444 23.352C27.4444 24.6853 27.7377 25.704 28.3244 26.408C28.9217 27.112 29.7644 27.464 30.8524 27.464C31.4177 27.464 31.951 27.3733 32.4524 27.192C32.9537 27 33.4604 26.7013 33.9724 26.296L34.6604 27.8C34.2017 28.2267 33.6364 28.5573 32.9644 28.792C32.2924 29.0267 31.5777 29.144 30.8204 29.144ZM39.5719 20.984C40.6705 20.984 41.4865 21.2507 42.0199 21.784C42.5532 22.3173 42.8199 23.1387 42.8199 24.248V29H40.9159V27.8C40.7345 28.216 40.4465 28.5413 40.0519 28.776C39.6679 29.0107 39.2199 29.128 38.7079 29.128C38.1852 29.128 37.7105 29.0213 37.2839 28.808C36.8572 28.5947 36.5212 28.3013 36.2759 27.928C36.0305 27.5547 35.9079 27.1387 35.9079 26.68C35.9079 26.104 36.0519 25.6507 36.3399 25.32C36.6385 24.9893 37.1185 24.7493 37.7799 24.6C38.4412 24.4507 39.3532 24.376 40.5159 24.376H40.9159V24.008C40.9159 23.4747 40.7985 23.0907 40.5639 22.856C40.3399 22.6213 39.9612 22.504 39.4279 22.504C39.0119 22.504 38.5745 22.5787 38.1159 22.728C37.6679 22.8667 37.2252 23.064 36.7879 23.32L36.2279 21.944C36.6652 21.6667 37.1932 21.4373 37.8119 21.256C38.4305 21.0747 39.0172 20.984 39.5719 20.984ZM39.1079 27.688C39.6412 27.688 40.0732 27.512 40.4039 27.16C40.7452 26.7973 40.9159 26.3333 40.9159 25.768V25.432H40.6279C39.9132 25.432 39.3585 25.464 38.9639 25.528C38.5692 25.592 38.2865 25.704 38.1159 25.864C37.9452 26.024 37.8599 26.2427 37.8599 26.52C37.8599 26.8613 37.9772 27.144 38.2119 27.368C38.4465 27.5813 38.7452 27.688 39.1079 27.688ZM52.4045 17.72V29H50.4205V27.736C50.1858 28.1733 49.8445 28.5147 49.3965 28.76C48.9592 29.0053 48.4578 29.128 47.8925 29.128C47.2205 29.128 46.6178 28.9573 46.0845 28.616C45.5618 28.2747 45.1512 27.7947 44.8525 27.176C44.5645 26.5467 44.4205 25.8267 44.4205 25.016C44.4205 24.2053 44.5645 23.496 44.8525 22.888C45.1512 22.28 45.5618 21.8107 46.0845 21.48C46.6072 21.1493 47.2098 20.984 47.8925 20.984C48.4578 20.984 48.9592 21.1013 49.3965 21.336C49.8338 21.5707 50.1698 21.9013 50.4045 22.328V17.72H52.4045ZM48.4205 27.576C49.0605 27.576 49.5512 27.3573 49.8925 26.92C50.2445 26.4827 50.4205 25.8587 50.4205 25.048C50.4205 24.2373 50.2445 23.6187 49.8925 23.192C49.5512 22.7547 49.0658 22.536 48.4365 22.536C47.7965 22.536 47.3005 22.7493 46.9485 23.176C46.5965 23.6027 46.4205 24.216 46.4205 25.016C46.4205 25.8267 46.5965 26.456 46.9485 26.904C47.3005 27.352 47.7912 27.576 48.4205 27.576ZM57.8219 20.984C58.9205 20.984 59.7365 21.2507 60.2699 21.784C60.8032 22.3173 61.0699 23.1387 61.0699 24.248V29H59.1659V27.8C58.9845 28.216 58.6965 28.5413 58.3019 28.776C57.9179 29.0107 57.4699 29.128 56.9579 29.128C56.4352 29.128 55.9605 29.0213 55.5339 28.808C55.1072 28.5947 54.7712 28.3013 54.5259 27.928C54.2805 27.5547 54.1579 27.1387 54.1579 26.68C54.1579 26.104 54.3019 25.6507 54.5899 25.32C54.8885 24.9893 55.3685 24.7493 56.0299 24.6C56.6912 24.4507 57.6032 24.376 58.7659 24.376H59.1659V24.008C59.1659 23.4747 59.0485 23.0907 58.8139 22.856C58.5899 22.6213 58.2112 22.504 57.6779 22.504C57.2619 22.504 56.8245 22.5787 56.3659 22.728C55.9179 22.8667 55.4752 23.064 55.0379 23.32L54.4779 21.944C54.9152 21.6667 55.4432 21.4373 56.0619 21.256C56.6805 21.0747 57.2672 20.984 57.8219 20.984ZM57.3579 27.688C57.8912 27.688 58.3232 27.512 58.6539 27.16C58.9952 26.7973 59.1659 26.3333 59.1659 25.768V25.432H58.8779C58.1632 25.432 57.6085 25.464 57.2139 25.528C56.8192 25.592 56.5365 25.704 56.3659 25.864C56.1952 26.024 56.1099 26.2427 56.1099 26.52C56.1099 26.8613 56.2272 27.144 56.4619 27.368C56.6965 27.5813 56.9952 27.688 57.3579 27.688ZM65.9825 29.128C65.2892 29.128 64.6492 29.0427 64.0625 28.872C63.4865 28.7013 62.9958 28.456 62.5905 28.136L63.1505 26.744C63.9825 27.352 64.9372 27.656 66.0145 27.656C66.4732 27.656 66.8198 27.5813 67.0545 27.432C67.2998 27.2827 67.4225 27.0693 67.4225 26.792C67.4225 26.5573 67.3372 26.376 67.1665 26.248C67.0065 26.12 66.7132 26.0027 66.2865 25.896L65.0065 25.608C64.2812 25.448 63.7425 25.1867 63.3905 24.824C63.0385 24.4613 62.8625 23.992 62.8625 23.416C62.8625 22.936 62.9958 22.5147 63.2625 22.152C63.5398 21.7787 63.9185 21.4907 64.3985 21.288C64.8892 21.0853 65.4545 20.984 66.0945 20.984C66.6492 20.984 67.1825 21.0693 67.6945 21.24C68.2172 21.4107 68.6758 21.6507 69.0705 21.96L68.5105 23.32C67.6998 22.7333 66.8892 22.44 66.0785 22.44C65.6412 22.44 65.2998 22.52 65.0545 22.68C64.8092 22.84 64.6865 23.064 64.6865 23.352C64.6865 23.5653 64.7612 23.7413 64.9105 23.88C65.0705 24.0187 65.3212 24.1253 65.6625 24.2L66.9905 24.504C67.7692 24.6747 68.3398 24.9467 68.7025 25.32C69.0652 25.6827 69.2465 26.1627 69.2465 26.76C69.2465 27.4853 68.9532 28.0613 68.3665 28.488C67.7798 28.9147 66.9852 29.128 65.9825 29.128ZM74.79 27.624C75.0247 27.624 75.27 27.608 75.526 27.576L75.43 29.064C75.11 29.096 74.8167 29.112 74.55 29.112C73.4513 29.112 72.6407 28.8613 72.118 28.36C71.5953 27.848 71.334 27.0907 71.334 26.088V22.68H69.83V21.176H71.334V18.84H73.334V21.176H75.398V22.68H73.334V26.056C73.334 27.1013 73.8193 27.624 74.79 27.624ZM81.8483 22.648L80.6803 22.76C79.3576 22.8987 78.6963 23.5707 78.6963 24.776V29H76.6963V21.176H78.6003V22.552C79.0056 21.6133 79.8429 21.1013 81.1123 21.016L81.7203 20.968L81.8483 22.648ZM86.15 20.984C87.2487 20.984 88.0647 21.2507 88.598 21.784C89.1313 22.3173 89.398 23.1387 89.398 24.248V29H87.494V27.8C87.3127 28.216 87.0247 28.5413 86.63 28.776C86.246 29.0107 85.798 29.128 85.286 29.128C84.7633 29.128 84.2887 29.0213 83.862 28.808C83.4353 28.5947 83.0993 28.3013 82.854 27.928C82.6087 27.5547 82.486 27.1387 82.486 26.68C82.486 26.104 82.63 25.6507 82.918 25.32C83.2167 24.9893 83.6967 24.7493 84.358 24.6C85.0193 24.4507 85.9313 24.376 87.094 24.376H87.494V24.008C87.494 23.4747 87.3767 23.0907 87.142 22.856C86.918 22.6213 86.5393 22.504 86.006 22.504C85.59 22.504 85.1527 22.5787 84.694 22.728C84.246 22.8667 83.8033 23.064 83.366 23.32L82.806 21.944C83.2433 21.6667 83.7713 21.4373 84.39 21.256C85.0087 21.0747 85.5953 20.984 86.15 20.984ZM85.686 27.688C86.2193 27.688 86.6513 27.512 86.982 27.16C87.3233 26.7973 87.494 26.3333 87.494 25.768V25.432H87.206C86.4913 25.432 85.9367 25.464 85.542 25.528C85.1473 25.592 84.8647 25.704 84.694 25.864C84.5233 26.024 84.438 26.2427 84.438 26.52C84.438 26.8613 84.5553 27.144 84.79 27.368C85.0247 27.5813 85.3233 27.688 85.686 27.688ZM96.5826 22.648L95.4146 22.76C94.092 22.8987 93.4306 23.5707 93.4306 24.776V29H91.4306V21.176H93.3346V22.552C93.74 21.6133 94.5773 21.1013 95.8466 21.016L96.4546 20.968L96.5826 22.648Z" fill="white"/>
</svg>
